<svg id="Layer_1" data-name="Layer 1" xmlns="http://www.w3.org/2000/svg" xmlns:xlink="http://www.w3.org/1999/xlink" viewBox="0 0 1000 131"><defs><style>.cls-1{fill:#fff;}.cls-2{fill:url(#linear-gradient);}.cls-3{fill:url(#linear-gradient-2);}</style><linearGradient id="linear-gradient" x1="713.74" y1="65.5" x2="804.64" y2="65.5" gradientUnits="userSpaceOnUse"><stop offset="0" stop-color="#02f4d2"/><stop offset="1" stop-color="#6c17fc"/></linearGradient><linearGradient id="linear-gradient-2" x1="121.24" y1="65.5" x2="0" y2="65.5" gradientUnits="userSpaceOnUse"><stop offset="0" stop-color="#6c17fc"/><stop offset="1" stop-color="#02f4d2"/></linearGradient></defs><title>logo-white</title><path class="cls-1" d="M152.83,13.51h23.55V94.77H226.3v22.72H152.83Z"/><path class="cls-1" d="M242.39,65.5c0-25.7,12.67-53.78,46.5-53.78,33.67,0,46.19,28.08,46.19,53.78s-12.52,53.78-46.19,53.78C255.06,119.28,242.39,91.2,242.39,65.5Zm68.25,0c0-14.26-5.21-31.2-21.75-31.2-16.84,0-22.06,17.68-22.06,31.2,0,14,5.52,31.05,22.06,31.05C304.83,96.55,310.64,79,310.64,65.5Z"/><path class="cls-1" d="M364.14,65.5c0-23.62,11.47-53.48,44.11-53.48a40.91,40.91,0,0,1,38.59,25.55l-21,9.36c-5.21-7.87-9.68-12.33-17.58-12.33-14.9,0-19.67,17.08-19.67,30.9,0,14.26,5.81,30.9,19.67,30.9,7.15,0,12.52-5.5,17.29-13.37l21.45,8c-7.6,16.34-19.52,27.93-38.74,27.93C375.32,119,364.14,91.2,364.14,65.5Z"/><path class="cls-1" d="M520.61,71.14l-20,25v21.39H477.1v-104h23.54v49l38.89-49h28.32l-31.3,37.88,36.66,66.1H545.64Z"/><path class="cls-1" d="M644.29,13.51c24.89,0,32.94,13.66,32.94,27.77,0,8.62-4.77,16.94-14.31,21.55,13,4.6,18,14.55,18,24.21,0,14.11-8.94,30.45-34.42,30.45H604.8v-104ZM661.43,42c0-6.69-2.83-14.26-16.69-14.26H620.3V56.44h21.46C654.87,56.44,661.43,50.5,661.43,42Zm3.73,45.75c0-8.76-4.32-17.08-21.91-17.08h-23v32.53h27.42C661.43,103.23,665.16,95.06,665.16,87.78Z"/><path class="cls-1" d="M842.64,13.51h15.49v89.13h51v14.85H842.64Z"/><path class="cls-1" d="M970.49,117.49H955V28.36H925.49V13.51H1000V28.36H970.49Z"/><path class="cls-2" d="M741.43,116.07C721.34,108,713.74,86,713.74,65.5c0-25.7,11.92-53.78,45.45-53.78a50.91,50.91,0,0,1,11.11,1.17l-45,58.53h31.19ZM777,14.93l-1.62,4.77L761.86,59.58h31.19L762.13,99.82l-14,18.3a51.48,51.48,0,0,0,11.11,1.16c33.52,0,45.45-28.08,45.45-53.78C804.64,45,797,23,777,14.93Z"/><path class="cls-3" d="M106.34,63.27c8.79-4,11.47-12.33,11.47-21.54,0-14.11-8.64-28.22-34.57-28.22H32.87v22H83.39c8.94,0,10.43,4.76,10.43,9.06,0,5.65-3.87,9.21-12.81,9.21H32.87v63.73H85.18c26.52,0,36.06-16,36.06-31.19C121.24,78.13,117.22,67.43,106.34,63.27ZM86.22,95.36H56.42V74.86H82.2c12.66,0,15.2,5.64,15.2,10.84C97.4,89.86,94.72,95.36,86.22,95.36ZM83.83,0V13.51H70.28V0Zm0,117.49V131H70.28V117.49Zm-46-90.65H28V17H37.8ZM24.9,64.22H15.06V54.4H24.9ZM17.27,44H11.85v-5.4h5.42ZM20,28.13H17.27v-2.7H20ZM4.06,26.78H0V22.73H4.06Zm4,25.74H1.33V45.77H8.1ZM28.46,39.68H21.68V32.93h6.78Zm-21-3.38H2V30.9H7.42Z"/></svg>